# File created by Blade
# Date/Time:  Wed Apr 08 17:00:17 2015
# Frame Rate: 120.000 fps
#------------------------------------------------------
:FULLY-SPECIFIED
:DEGREES
2158
root 1.626857 35.827950 2.765358 -58.788582 -87.475688 48.676975
Spine 9.218699 0.403979 -6.233461
Head 5.612021 2.208533 5.844516
LeftShoulder -8.740339 10.039722 27.434098
LeftArm 21.656551 -3.432087 -44.325633
LeftForeArm 10.374282 -0.000000 93.481253
LeftHand -17.945769 -0.000000 -4.470579
LeftHandThumb1 -26.253704 0.000000 33.147579
RightShoulder -31.395069 -43.411093 2.124793
RightArm 68.445777 46.917213 83.076884
RightForeArm 37.011142 -0.000000 88.066279
RightHand 2.656272 -0.000000 6.126764
RightHandThumb1 -24.326973 -0.000000 -32.862282
LeftUpLeg 14.551723 11.886407 6.914404
LeftLeg 8.569308 -0.000000 -0.000000
LeftFoot -13.638674 1.363065 -13.556475
LeftToeBase 9.709511 -0.000000 -0.000000
RightUpLeg 16.949413 -11.978679 -13.933891
RightLeg 2.170162 -0.000000 -0.000000
RightFoot -9.718877 6.750963 19.674596
RightToeBase 15.291417 -0.000000 -0.000000
2159
root 1.636635 35.829335 2.765717 -59.417983 -87.509345 49.338397
Spine 9.246905 0.405054 -6.245237
Head 5.634794 2.092743 5.908909
LeftShoulder -8.742075 10.048236 27.473968
LeftArm 21.061262 -3.992834 -44.130733
LeftForeArm 9.465536 -0.000000 92.422729
LeftHand -18.066312 0.000000 -4.354943
LeftHandThumb1 -26.253704 0.000000 33.147579
RightShoulder -31.468167 -43.397967 2.098303
RightArm 68.282504 47.153019 83.080104
RightForeArm 36.299272 -0.000000 86.932283
RightHand 2.669435 0.000000 5.691721
RightHandThumb1 -24.326973 -0.000000 -32.862282
LeftUpLeg 14.534422 11.915516 6.914331
LeftLeg 8.526997 -0.000000 -0.000000
LeftFoot -13.632734 1.386436 -13.574953
LeftToeBase 9.741483 -0.000000 -0.000000
RightUpLeg 16.885312 -11.971638 -13.915234
RightLeg 2.173717 -0.000000 -0.000000
RightFoot -9.680700 6.777349 19.701292
RightToeBase 15.299581 -0.000000 -0.000000
2160
root 1.644796 35.831850 2.763795 -59.781250 -87.535187 49.756890
Spine 9.237842 0.262052 -6.272272
Head 5.682755 2.108684 5.930976
LeftShoulder -8.867395 10.121314 27.453653
LeftArm 20.500319 -4.549772 -43.890802
LeftForeArm 8.291774 -0.000000 91.315507
LeftHand -18.147605 -0.000000 -4.197390
LeftHandThumb1 -26.253704 0.000000 33.147579
RightShoulder -31.349244 -43.383295 1.953005
RightArm 68.102973 47.434345 83.034292
RightForeArm 35.287170 -0.000000 85.891177
RightHand 2.443073 -0.000000 5.093115
RightHandThumb1 -24.326973 -0.000000 -32.862282
LeftUpLeg 14.491457 11.940022 6.915314
LeftLeg 8.485618 -0.000000 -0.000000
LeftFoot -13.608332 1.396372 -13.606080
LeftToeBase 9.752437 -0.000000 -0.000000
RightUpLeg 16.805657 -11.996679 -13.894685
RightLeg 2.176262 -0.000000 -0.000000
RightFoot -9.641623 6.798137 19.661272
RightToeBase 15.301291 -0.000000 -0.000000
2161
root 1.655632 35.833609 2.764395 -60.277209 -87.562564 50.283699
Spine 9.268283 0.402827 -6.280019
Head 5.680604 1.824677 6.043068
LeftShoulder -8.782452 10.109101 27.521336
LeftArm 20.058448 -5.136155 -43.743689
LeftForeArm 7.165280 -0.000000 90.179594
LeftHand -18.271950 0.000000 -4.311053
LeftHandThumb1 -26.253704 0.000000 33.147579
RightShoulder -31.552658 -43.354253 2.043745
RightArm 67.980667 47.750858 83.086077
RightForeArm 34.210196 -0.000000 84.775045
RightHand 2.494225 -0.000000 4.913590
RightHandThumb1 -24.326973 -0.000000 -32.862282
LeftUpLeg 14.465335 11.957875 6.912367
LeftLeg 8.455808 -0.000000 -0.000000
LeftFoot -13.587265 1.413665 -13.628511
LeftToeBase 9.706492 -0.000000 -0.000000
RightUpLeg 16.743916 -12.005914 -13.881776
RightLeg 2.182386 -0.000000 -0.000000
RightFoot -9.609295 6.828284 19.664876
RightToeBase 15.308149 -0.000000 -0.000000
2162
root 1.665896 35.835867 2.764573 -60.738842 -87.584357 50.784912
Spine 9.284998 0.448405 -6.306860
Head 5.683420 1.607600 6.152590
LeftShoulder -8.767651 10.094435 27.579301
LeftArm 19.594556 -5.683997 -43.585064
LeftForeArm 6.080938 -0.000000 89.024214
LeftHand -18.448248 -0.000000 -4.397294
LeftHandThumb1 -26.253704 0.000000 33.147579
RightShoulder -31.604151 -43.333888 2.017030
RightArm 67.872009 48.064207 83.188472
RightForeArm 33.123689 -0.000000 83.668005
RightHand 2.469379 -0.000000 4.686623
RightHandThumb1 -24.326973 -0.000000 -32.862282
LeftUpLeg 14.438402 11.969171 6.902282
LeftLeg 8.408000 -0.000000 -0.000000
LeftFoot -13.573396 1.453637 -13.631952
LeftToeBase 9.748046 -0.000000 -0.000000
RightUpLeg 16.677206 -11.979189 -13.854541
RightLeg 2.179945 -0.000000 -0.000000
RightFoot -9.594533 6.800287 19.626371
RightToeBase 15.307270 -0.000000 -0.000000
2163
root 1.675604 35.838319 2.764368 -61.075688 -87.608618 51.172303
Spine 9.288766 0.434532 -6.326848
Head 5.690904 1.446311 6.212741
LeftShoulder -8.793578 10.080108 27.629081
LeftArm 19.116342 -6.222518 -43.464150
LeftForeArm 5.316329 -0.000000 87.889616
LeftHand -18.386624 -0.000000 -4.609041
LeftHandThumb1 -26.253704 0.000000 33.147579
RightShoulder -31.591955 -43.317736 1.947183
RightArm 67.768281 48.369864 83.245268
RightForeArm 32.195440 -0.000000 82.559128
RightHand 2.486355 0.000000 4.616701
RightHandThumb1 -24.326973 -0.000000 -32.862282
LeftUpLeg 14.398537 11.966604 6.889264
LeftLeg 8.360280 -0.000000 -0.000000
LeftFoot -13.546541 1.500511 -13.668016
LeftToeBase 9.645330 -0.000000 -0.000000
RightUpLeg 16.598726 -11.964232 -13.824816
RightLeg 2.181710 -0.000000 -0.000000
RightFoot -9.560764 6.799747 19.650495
RightToeBase 15.300315 -0.000000 -0.000000
